<svg viewBox="0 0 256 256" xmlns="http://www.w3.org/2000/svg" fill="currentColor">
  <!-- Audio/Music Icon in red -->
  <path d="M128,20A108,108,0,1,0,236,128,108.12,108.12,0,0,0,128,20Zm0,192a84,84,0,1,1,84-84A84.09,84.09,0,0,1,128,212Z"/>
  <path d="M128,60a8,8,0,0,0-8,8v64a8,8,0,0,0,16,0V68A8,8,0,0,0,128,60Z"/>
  <path d="M96,76a8,8,0,0,0-8,8v48a8,8,0,0,0,16,0V84A8,8,0,0,0,96,76Z"/>
  <path d="M160,76a8,8,0,0,0-8,8v48a8,8,0,0,0,16,0V84A8,8,0,0,0,160,76Z"/>
  <path d="M64,92a8,8,0,0,0-8,8v32a8,8,0,0,0,16,0V100A8,8,0,0,0,64,92Z"/>
  <path d="M192,92a8,8,0,0,0-8,8v32a8,8,0,0,0,16,0V100A8,8,0,0,0,192,92Z"/>
  <circle cx="128" cy="160" r="8"/>
</svg>
